HIERARCHY
ROOT Hips
{
	OFFSET 0.000000 0.000000 0.000000
	CHANNELS 6 Xposition Yposition Zposition Zrotation Yrotation Xrotation 
	JOINT LHipJoint
	{
		OFFSET 0.000000 0.000000 0.000000
		CHANNELS 3 Zrotation Yrotation Xrotation
		JOINT LeftUpLeg
		{
			OFFSET 1.363060 -1.794630 0.839290
			CHANNELS 3 Zrotation Yrotation Xrotation
			JOINT LeftLeg
			{
				OFFSET 2.448110 -6.726130 0.000000
				CHANNELS 3 Zrotation Yrotation Xrotation
				JOINT LeftFoot
				{
					OFFSET 2.562200 -7.039590 0.000000
					CHANNELS 3 Zrotation Yrotation Xrotation
					JOINT LeftToeBase
					{
						OFFSET 0.157640 -0.433110 2.322550
						CHANNELS 3 Zrotation Yrotation Xrotation
						End Site
						{
							OFFSET 0.000000 0.000000 0.000000
						}
					}
				}
			}
		}
	}
	JOINT RHipJoint
	{
		OFFSET 0.000000 0.000000 0.000000
		CHANNELS 3 Zrotation Yrotation Xrotation
		JOINT RightUpLeg
		{
			OFFSET -1.305520 -1.794630 0.839290
			CHANNELS 3 Zrotation Yrotation Xrotation
			JOINT RightLeg
			{
				OFFSET -2.542530 -6.985550 0.000000
				CHANNELS 3 Zrotation Yrotation Xrotation
				JOINT RightFoot
				{
					OFFSET -2.568260 -7.056230 0.000000
					CHANNELS 3 Zrotation Yrotation Xrotation
					JOINT RightToeBase
					{
						OFFSET -0.164730 -0.452590 2.363150
						CHANNELS 3 Zrotation Yrotation Xrotation
						End Site
						{
							OFFSET 0.000000 0.000000 0.000000
						}
					}
				}
			}
		}
	}
}
MOTION
Frames: 28
Frame Time: 0.008333
2.420613 16.841923 7.745038 7.233886 5.667272 15.797773 -7.369915 2.047456 5.170444 -18.821148 -8.072075 -36.235891 -3.561853 0.253525 19.914994 -0.266787 -1.990154 -0.065188 0.103700 0.000000 -25.780000 12.775111 -4.131464 2.393112 4.093667 -1.037691 -8.574311 0.307958 -2.816182 41.351277 0.907659 29.090851 16.478667 11.190600 0.000000 -31.593000
2.444372 16.839661 7.881058 7.653598 5.337684 15.603010 -7.289002 2.109247 5.109387 -19.450635 -8.078289 -35.582047 -3.579244 0.283038 20.488299 -0.193652 -1.676788 -0.858201 0.138600 -0.000000 -25.327100 12.949732 -4.056652 2.254229 3.381666 -1.700303 -9.821437 0.050831 -2.951611 43.883638 0.738312 27.948807 18.157660 11.631700 -0.000000 -41.900600
2.469662 16.838633 8.012247 8.038455 4.992809 15.383667 -7.223615 2.154666 5.043551 -20.019731 -8.086668 -34.863610 -3.592825 0.300818 20.973163 -0.114685 -1.344407 -1.679906 0.165100 -0.000001 -24.972000 13.093823 -3.964242 2.094900 2.727827 -2.358369 -11.095665 -0.185400 -3.089041 46.429221 0.580686 26.267768 19.324400 11.516700 0.000000 -49.965901
2.496600 16.838955 8.139252 8.379677 4.630987 15.144767 -7.177808 2.186110 4.970533 -20.524807 -8.072778 -34.103336 -3.600832 0.310018 21.380895 -0.032902 -1.002712 -2.487120 0.181700 0.000000 -24.707200 13.206646 -3.858119 1.924768 2.141739 -2.980376 -12.385732 -0.406119 -3.229741 48.953594 0.431490 24.064289 19.965285 10.876101 -0.000000 -56.204200
2.525078 16.840649 8.262681 8.674516 4.251726 14.892385 -7.153059 2.206957 4.888970 -20.968732 -8.015710 -33.323382 -3.602728 0.313328 21.721523 0.048768 -0.659574 -3.244879 0.188900 -0.000000 -24.525100 13.290028 -3.741409 1.751916 1.625506 -3.547284 -13.688363 -0.613995 -3.374209 51.433033 0.288415 21.412892 20.043083 9.785000 -0.000000 -60.502400
2.554820 16.843780 8.383185 8.922414 3.856362 14.634102 -7.149311 2.220699 4.797958 -21.356880 -7.898050 -32.545087 -3.598716 0.312914 22.004977 0.127643 -0.322658 -3.929704 0.188201 -0.000000 -24.419100 13.346474 -3.616645 1.584487 1.180471 -4.043103 -15.000336 -0.809617 -3.521033 53.834817 0.148375 18.436567 19.562088 8.376200 0.000000 -63.003701
2.585507 16.848292 8.501354 9.125603 3.447097 14.378246 -7.165128 2.230794 4.697418 -21.696503 -7.706902 -31.787862 -3.589836 0.310353 22.240502 0.201420 -0.000302 -4.530310 0.181500 0.000000 -24.380301 13.379164 -3.486107 1.429803 0.804654 -4.457744 -16.321710 -0.991436 -3.668123 56.128719 0.009832 15.291993 18.546775 6.806100 0.000000 -63.817800
2.616670 16.854131 8.617601 9.290712 3.026780 14.131512 -7.196560 2.240240 4.588104 -21.998284 -7.439677 -31.062097 -3.577958 0.306275 22.431691 0.268872 0.303247 -5.045180 0.170800 -0.000000 -24.398900 13.392672 -3.351205 1.293248 0.489157 -4.787618 -17.651922 -1.156644 -3.813007 58.284887 -0.127322 12.150428 17.057279 5.233500 0.000000 -63.127100
2.647890 16.861212 8.732351 9.423462 2.598049 13.900870 -7.240161 2.251264 4.471145 -22.271018 -7.096852 -30.377046 -3.565135 0.300993 22.583026 0.328978 0.580710 -5.482577 0.157500 -0.000000 -24.461700 13.390489 -3.213446 1.179744 0.225999 -5.030709 -18.991843 -1.302028 -3.952789 60.276183 -0.261198 9.171145 15.182457 3.791100 0.000000 -61.149399
2.678770 16.869348 8.845829 9.530842 2.164089 13.691351 -7.291702 2.265266 4.348067 -22.523073 -6.686113 -29.733912 -3.553549 0.294129 22.694189 0.381538 0.827921 -5.855587 0.142500 -0.000000 -24.554100 13.376212 -3.073698 1.092338 0.003597 -5.189100 -20.341290 -1.424794 -4.084745 62.079909 -0.387953 6.484873 13.031059 2.569700 -0.000000 -58.127600
2.708995 16.878451 8.958181 9.618619 1.727385 13.505806 -7.348003 2.282838 4.220410 -22.760663 -6.217323 -29.131272 -3.545098 0.285299 22.765665 0.426467 1.039447 -6.180464 0.126101 -0.000000 -24.660800 13.352069 -2.932651 1.033063 -0.187469 -5.265732 -21.699451 -1.523065 -4.206267 63.678103 -0.502396 4.180617 10.719513 1.611500 -0.000000 -54.329101
2.738306 16.888324 9.069481 9.691593 1.290894 13.345150 -7.405684 2.303904 4.089720 -22.988186 -5.704152 -28.561802 -3.541318 0.273760 22.794801 0.464140 1.212713 -6.472806 0.108199 0.000000 -24.767100 13.320173 -2.790481 1.001912 -0.357102 -5.267142 -23.063607 -1.595941 -4.315448 65.058610 -0.598728 2.305352 8.355211 0.915900 0.000000 -49.995600
2.766485 16.898809 9.179759 9.753638 0.857513 13.208090 -7.462640 2.327951 3.957277 -23.207705 -5.160097 -28.015165 -3.543181 0.258860 22.778276 0.494946 1.346039 -6.744972 0.088999 -0.000000 -24.860900 13.281392 -2.647196 0.997526 -0.512446 -5.201020 -24.428124 -1.643336 -4.410757 66.212473 -0.671931 0.867789 6.029588 0.451700 0.000000 -45.358100
2.793460 16.909802 9.288998 9.806025 0.429845 13.091702 -7.517753 2.354078 3.823849 -23.418374 -4.596743 -27.480493 -3.550917 0.240093 22.713438 0.519278 1.439029 -7.005380 0.068300 0.000000 -24.933700 13.235822 -2.502749 1.017519 -0.657380 -5.075605 -25.785706 -1.665734 -4.491147 67.134191 -0.718865 -0.154106 3.811500 0.171500 0.000000 -40.629300
2.819216 16.921197 9.397189 9.848850 0.010618 12.992130 -7.570684 2.381394 3.690055 -23.617555 -4.023788 -26.946735 -3.564208 0.217135 22.597730 0.537477 1.492658 -7.257470 0.046700 -0.000000 -24.980500 13.183018 -2.357030 1.059009 -0.793062 -4.899122 -27.127614 -1.663976 -4.555821 67.820274 -0.738979 -0.804750 1.746723 0.023900 0.000001 -35.996700
2.843747 16.932917 9.504389 9.881415 -0.397278 12.905341 -7.621832 2.409090 3.556128 -23.801232 -3.447556 -26.404401 -3.582234 0.189884 22.429391 0.549842 1.509518 -7.499761 0.024800 0.000000 -25.002000 13.122211 -2.210106 1.118867 -0.918621 -4.679594 -28.443883 -1.639101 -4.604247 68.269331 -0.734416 -1.143231 -0.140905 -0.037800 -0.000000 -31.619200
2.867109 16.944947 9.610653 9.902840 -0.791263 12.827137 -7.671647 2.436558 3.422166 -23.965497 -2.872928 -25.845407 -3.603900 0.158446 22.206874 0.556747 1.494213 -7.726741 0.003500 0.000000 -25.003800 13.052740 -2.061791 1.193911 -1.032716 -4.424236 -29.724945 -1.592275 -4.636121 68.482252 -0.709690 -1.237350 -1.848388 -0.050900 -0.000000 -27.605400
2.889335 16.957243 9.716099 9.911419 -1.168387 12.755137 -7.720785 2.463441 3.288415 -24.105962 -2.301981 -25.266569 -3.627917 0.123173 21.931282 0.558425 1.451185 -7.930924 -0.016200 -0.000000 -24.995800 12.974043 -1.912280 1.281849 -1.132351 -4.138765 -30.962259 -1.524918 -4.651165 68.461373 -0.671382 -1.159711 -3.383595 -0.041900 -0.000001 -24.061400
2.910453 16.969834 9.820898 9.907536 -1.525866 12.686906 -7.769536 2.489805 3.155407 -24.220421 -1.736544 -24.665132 -3.653158 0.084489 21.603152 0.555309 1.386804 -8.103511 -0.033200 -0.000000 -24.992001 12.885964 -1.761577 1.380542 -1.217101 -3.829264 -32.148639 -1.438307 -4.649463 68.212372 -0.626792 -0.980494 -4.774111 -0.026900 0.000000 -20.959600
2.930498 16.982727 9.925207 9.890994 -1.861074 12.621773 -7.817793 2.515869 3.023851 -24.307570 -1.178004 -24.042258 -3.678577 0.042966 21.225251 0.547859 1.307153 -8.236805 -0.046800 -0.000000 -25.008800 12.788722 -1.609756 1.488633 -1.286088 -3.500122 -33.278996 -1.334037 -4.631161 67.742938 -0.583871 -0.766399 -6.050435 -0.014000 -0.000000 -18.253500
2.949400 16.995909 10.029288 9.863010 -2.171547 12.560257 -7.865098 2.542069 2.895047 -24.367287 -0.628868 -23.400422 -3.703424 -0.000865 20.800689 0.536540 1.217740 -8.324600 -0.056500 0.000001 -25.061600 12.682894 -1.456848 1.605402 -1.340709 -3.155649 -34.350345 -1.213802 -4.596515 67.062646 -0.550306 -0.575625 -7.247466 -0.005100 -0.000000 -15.816500
2.967173 17.009370 10.133306 9.824593 -2.455742 12.504580 -7.910711 2.568649 2.770314 -24.400603 -0.092897 -22.745070 -3.727223 -0.046484 20.334190 0.521907 1.123094 -8.364437 -0.062200 0.000000 -25.163700 12.569160 -1.302803 1.730755 -1.382085 -2.798026 -35.362337 -1.080016 -4.545647 66.181462 -0.533340 -0.456739 -8.389245 0.002200 0.000000 -13.557800
2.983793 17.023130 10.237493 9.776963 -2.712207 12.457194 -7.953849 2.595898 2.651516 -24.409185 0.424383 -22.080769 -3.749611 -0.093487 19.830734 0.504638 1.027492 -8.356617 -0.064200 -0.000000 -25.323300 12.448305 -1.147790 1.864988 -1.412887 -2.430088 -36.315887 -0.935464 -4.478701 65.110381 -0.539191 -0.445935 -9.494238 0.012900 -0.000000 -11.344100
2.999236 17.037119 10.341976 9.720977 -2.940965 12.421437 -7.993870 2.623763 2.540446 -24.394270 0.916157 -21.413626 -3.770435 -0.141585 19.295808 0.485337 0.933400 -8.304567 -0.062799 -0.000000 -25.542800 12.321038 -0.992100 2.008734 -1.434809 -2.053280 -37.213522 -0.783909 -4.395523 63.858506 -0.572843 -0.566998 -10.561248 0.032999 0.000000 -9.135200
3.013513 17.051274 10.446858 9.657309 -3.143088 12.399874 -8.030307 2.652152 2.438958 -24.357765 1.374623 -20.747757 -3.789538 -0.190559 18.734954 0.464760 0.843564 -8.213903 -0.058700 -0.000001 -25.819300 12.188079 -0.836507 2.162543 -1.449461 -1.669853 -38.057815 -0.629687 -4.295951 62.434265 -0.637476 -0.830377 -11.576320 0.068300 0.000000 -6.923300
3.026594 17.065528 10.552226 9.586234 -3.320182 12.395338 -8.063352 2.680856 2.348822 -24.300230 1.792926 -20.089265 -3.806774 -0.240105 18.156109 0.443499 0.758545 -8.092905 -0.052600 -0.000000 -26.143900 12.049960 -0.682494 2.327090 -1.456096 -1.282448 -38.851883 -0.477705 -4.179630 60.843606 -0.734220 -1.235032 -12.509371 0.121700 -0.000000 -4.782600
3.038543 17.079769 10.658040 9.507406 -3.477438 12.409259 -8.092555 2.709326 2.269792 -24.223414 2.163795 -19.437930 -3.822059 -0.290158 17.561827 0.422497 0.682165 -7.948799 -0.045100 -0.000000 -26.505700 11.907901 -0.530990 2.500401 -1.454515 -0.895868 -39.596117 -0.332375 -4.046604 59.090777 -0.861204 -1.765379 -13.325820 0.192301 -0.000000 -2.791700
3.049325 17.093820 10.764267 9.419770 -3.617413 12.441510 -8.119357 2.737683 2.202894 -24.126383 2.486137 -18.799184 -3.835059 -0.340051 16.963183 0.401921 0.611702 -7.791063 -0.036900 -0.000000 -26.891400 11.762288 -0.385329 2.682466 -1.438631 -0.515599 -40.291294 -0.197403 -3.896729 57.178303 -1.014093 -2.397144 -13.986468 0.274100 0.000000 -1.046000
